<svg width="512" height="512" xmlns="http://www.w3.org/2000/svg">
 <metadata id="metadata21">image/svg+xml</metadata>
 <!-- Generator: Sketch 49 (51002) - http://www.bohemiancoding.com/sketch -->
 <title>Group 16</title>
 <desc>Created with Sketch.</desc>

 <g>
  <title>background</title>
  <rect fill="none" id="canvas_background" height="514" width="514" y="-1" x="-1"/>
 </g>
 <g>
  <title>Layer 1</title>
  <g id="UI" fill="none" fill-rule="evenodd">
   <g  id="Group-16">
    <path d="m77.608474,292.342544c-1.704419,1.522679 -3.588251,3.000572 -5.651495,4.433677c-2.063288,1.433105 -4.328339,2.709454 -6.795283,3.829048c-2.466945,1.119638 -5.180526,2.015296 -8.140833,2.687061c-2.960351,0.671809 -6.189733,1.00767 -9.688322,1.00767c-10.226559,0 -18.255205,-3.672293 -24.086157,-11.016967c-5.830952,-7.344674 -8.746384,-18.40634 -8.746384,-33.185262c0,-8.150801 0.852188,-15.293844 2.556651,-21.429349c1.704419,-6.135505 4.148882,-11.240859 7.333477,-15.316282c3.184595,-4.075378 6.997089,-7.120694 11.437572,-9.135989c4.440483,-2.01534 9.396721,-3.022965 14.868848,-3.022965c5.472127,0 10.38349,1.209169 14.734267,3.62755c4.350776,2.418337 8.140833,5.911525 11.370303,10.47952l-6.727971,7.792503c-2.601526,-1.791359 -5.359939,-3.224464 -8.275415,-4.299315c-2.915476,-1.074807 -6.077633,-1.61221 -9.486471,-1.61221c-2.511776,0 -4.88897,0.537403 -7.131671,1.61221c-2.242657,1.074851 -4.216195,2.799029 -5.920614,5.172623c-1.704419,2.373594 -3.050013,5.418909 -4.036782,9.136033c-0.986769,3.717124 -1.480175,8.173107 -1.480175,13.368123c0,6.269867 0.448531,11.464796 1.345594,15.585005c0.897063,4.120166 2.152951,7.411811 3.767664,9.874935c1.614757,2.463168 3.588251,4.20974 5.920658,5.239804c2.332363,1.030019 4.933845,1.545073 7.804446,1.545073c1.166182,0 2.399632,-0.179149 3.700395,-0.537447c1.300763,-0.358254 2.399632,-0.806083 3.296695,-1.34353l0,-22.168295l-9.419159,0l0,-12.226135l27.450164,0l0,39.902914zm46.859476,-41.246445c-1.4353,-0.447829 -2.668751,-0.783733 -3.700395,-1.007626c-1.0316,-0.223936 -1.995932,-0.335905 -2.893038,-0.335905c-1.794125,0 -3.588251,0.895702 -5.382376,2.687061c-1.794125,1.791403 -3.85737,4.254528 -6.189733,7.389417l0,43.127422l-17.358186,0l0,-67.445331l13.052285,0l2.556607,11.823094c3.139764,-4.299359 5.89822,-7.568566 8.275415,-9.807798c2.377238,-2.239232 5.001158,-3.358826 7.871759,-3.358826c0.897063,0 1.816563,0.089531 2.758457,0.26868c0.941938,0.179149 1.995976,0.403085 3.162157,0.671765l-2.152951,15.988047zm44.03375,21.765254l-5.113258,0c-3.139764,0 -5.718808,0.26868 -7.737177,0.806083c-2.018413,0.537447 -3.588251,1.231606 -4.709601,2.082477c-1.12135,0.850914 -1.906269,1.880978 -2.354801,3.090146c-0.448531,1.209169 -0.672819,2.485518 -0.672819,3.829048c0,2.687105 0.740088,4.72475 2.220263,6.113068c1.480175,1.388362 3.520938,2.082477 6.122464,2.082477c2.242657,0 4.395607,-0.380648 6.458852,-1.141988c2.063244,-0.76134 3.991951,-1.768966 5.786077,-3.022921l0,-13.838389zm4.440439,30.095116l-1.883832,-7.658141c-2.511776,2.418381 -5.516914,4.523207 -9.015459,6.31461c-3.498589,1.791403 -7.221377,2.687061 -11.168453,2.687061c-6.907427,0 -12.065516,-1.701785 -15.474354,-5.105442c-3.408882,-3.403613 -5.113302,-8.1955 -5.113302,-14.375793c0,-3.134934 0.605506,-6.090674 1.816563,-8.867309c1.211057,-2.776635 3.162157,-5.217366 5.853345,-7.322236c2.691232,-2.10487 6.144858,-3.784305 10.361097,-5.038261c4.216239,-1.253956 9.374284,-1.880934 15.474354,-1.880934l4.709601,0l0,-4.568038c0,-3.582762 -1.255888,-6.090674 -3.767664,-7.523779c-2.51182,-1.433105 -5.516958,-2.149657 -9.015503,-2.149657c-3.319176,0 -6.683139,0.335905 -10.091978,1.00767c-3.408882,0.671765 -6.548558,1.455499 -9.419159,2.351156l-1.883876,-10.47952c3.767707,-1.522679 7.894152,-2.933391 12.37951,-4.232134c4.485358,-1.298743 9.508865,-1.948115 15.070698,-1.948115c8.52214,0 14.644516,1.85854 18.367349,5.575664c3.722876,3.717124 5.584227,9.158339 5.584227,16.323907l0,46.88929l-12.783166,0zm61.257398,-30.095116l-5.113258,0c-3.139764,0 -5.718808,0.26868 -7.737177,0.806083c-2.018413,0.537447 -3.588295,1.231606 -4.709601,2.082477c-1.12135,0.850914 -1.906269,1.880978 -2.354801,3.090146c-0.448531,1.209169 -0.672819,2.485518 -0.672819,3.829048c0,2.687105 0.740088,4.72475 2.220263,6.113068c1.480175,1.388362 3.520938,2.082477 6.122464,2.082477c2.242657,0 4.395607,-0.380648 6.458852,-1.141988c2.063244,-0.76134 3.991907,-1.768966 5.786077,-3.022921l0,-13.838389zm4.440439,30.095116l-1.883832,-7.658141c-2.511776,2.418381 -5.516914,4.523207 -9.015503,6.31461c-3.498545,1.791403 -7.221333,2.687061 -11.168409,2.687061c-6.907427,0 -12.065516,-1.701785 -15.474398,-5.105442c-3.408838,-3.403613 -5.113258,-8.1955 -5.113258,-14.375793c0,-3.134934 0.605506,-6.090674 1.816563,-8.867309c1.211057,-2.776635 3.162157,-5.217366 5.853345,-7.322236c2.691188,-2.10487 6.144858,-3.784305 10.361097,-5.038261c4.216239,-1.253956 9.374284,-1.880934 15.474354,-1.880934l4.709601,0l0,-4.568038c0,-3.582762 -1.255888,-6.090674 -3.767664,-7.523779c-2.51182,-1.433105 -5.516958,-2.149657 -9.015503,-2.149657c-3.319176,0 -6.683139,0.335905 -10.091978,1.00767c-3.408882,0.671765 -6.548558,1.455499 -9.419159,2.351156l-1.883876,-10.47952c3.767707,-1.522679 7.894152,-2.933391 12.37951,-4.232134c4.485358,-1.298743 9.508865,-1.948115 15.070654,-1.948115c8.522184,0 14.64456,1.85854 18.367393,5.575664c3.722876,3.717124 5.584227,9.158339 5.584227,16.323907l0,46.88929l-12.783166,0zm54.125728,-0.671765c-2.063244,0.626978 -4.148926,1.119594 -6.257046,1.477892c-2.108076,0.358254 -4.328295,0.537403 -6.660702,0.537403c-4.754433,0 -8.275371,-1.030019 -10.562903,-3.090146c-2.287532,-2.060083 -3.431276,-5.956268 -3.431276,-11.688732l0,-81.821124l17.223649,0l0,75.775237c0,3.672337 0.358781,6.045887 1.076475,7.120737c0.71765,1.074807 1.883788,1.612254 3.498545,1.612254l1.883832,0c0.71765,0 1.480132,-0.044787 2.287488,-0.134362l0.941938,10.21084z" id="Combined-Shape-Copy" fill="#00758F"/>
    <path d="m366.940805,212.267992c-3.408882,15.316369 -7.288646,30.587688 -11.639422,45.814483c-4.350776,15.226795 -8.993065,30.184647 -13.92691,44.873994l-23.144263,0c-5.023595,-15.13722 -9.688278,-30.229434 -13.994223,-45.277036c-4.305901,-15.047646 -8.208102,-30.184647 -11.706691,-45.411441l20.587656,0c0.986769,5.374165 2.152951,11.016967 3.498545,16.928536c1.345594,5.911569 2.780895,11.957412 4.305901,18.137704c1.525007,6.180249 3.13972,12.427634 4.844139,18.742245c1.704419,6.314654 3.453714,12.472465 5.247839,18.473609c1.525007,-5.105486 3.072451,-10.591488 4.642289,-16.458313c1.569882,-5.866782 3.13972,-11.912624 4.709601,-18.13766c1.569882,-6.22508 3.050013,-12.539602 4.440483,-18.943831c1.390425,-6.404185 2.668751,-12.651571 3.834932,-18.742289l18.300124,0z" id="GraalVM" fill="#F29111"/>
    <path d="m450.938723,302.956469c-0.179413,-11.912712 -0.493363,-23.735674 -0.941894,-35.469281c-0.448531,-11.733563 -1.166182,-23.735674 -2.152951,-36.006641l-0.269119,0l-20.453075,71.475922l-13.590523,0l-19.780256,-71.475922l-0.269119,0c-0.986769,12.270967 -1.704419,24.273078 -2.152951,36.006641c-0.448531,11.733607 -0.762525,23.556569 -0.941938,35.469281l-17.223649,0c0.448531,-15.226795 1.166182,-30.363752 2.152951,-45.411398c0.986813,-15.047646 2.242657,-30.139859 3.767707,-45.27708l26.777345,0l16.281711,58.578022l0.269119,0l16.819948,-58.578022l25.028095,0c1.525051,15.13722 2.780895,30.229434 3.767664,45.27708c0.986813,15.047646 1.704463,30.184603 2.152995,45.411398l-19.242062,0z" id="path10" fill="#F29111"/>
    <polygon id="™" fill="#F29111" points="480.741943359375,294.1980743408203 480.741943359375,302.36827087402344 477.5997009277344,302.36827087402344 477.5997009277344,294.1980743408203 475.5704040527344,294.1980743408203 475.5704040527344,291.51829528808594 482.771240234375,291.51829528808594 482.771240234375,294.1980743408203 "/>
    <path d="m494.685175,302.368219c-0.043646,-1.437935 -0.076358,-2.777821 -0.098181,-4.019702c-0.021823,-1.241881 -0.054579,-2.494607 -0.098225,-3.758267l-2.487538,7.777969l-2.814836,0l-2.553006,-7.712588c-0.043602,1.263616 -0.065425,2.516386 -0.065425,3.758223l0,3.954365l-2.618475,0c0,-1.830131 0.043646,-3.649329 0.130937,-5.457637c0.087291,-1.808352 0.196361,-3.605771 0.327298,-5.3923l4.058605,0l2.225708,7.124338l2.291133,-7.124338l3.993137,0c0.174583,1.830131 0.305519,3.638439 0.392767,5.424968c0.087291,1.786529 0.130937,3.594837 0.130937,5.424968l-2.814836,0z" id="path13" fill="#F29111"/>
   </g>
  </g>
 </g>
</svg>
